<svg xmlns="http://www.w3.org/2000/svg" width="410" height="404" viewBox="0 0 410 404" fill="none"><g clip-path="url(#prefix__clip0)"><path d="M399.641 59.524C407.769 38.877 389.416 17.504 368.115 22.562L27.277 104.79C5.975 109.848 -2.362 137.756 13.867 153.242L263.273 396.103C279.502 411.589 307.53 402.676 315.658 382.029L399.641 59.524Z" fill="url(#prefix__paint0_linear)"/><path d="M292.965 12.784C285.323 -6.561 259.211 -7.191 250.603 12.003L142.345 254.242C133.737 273.436 150.181 295.151 170.896 291.243L357.344 256.379C378.059 252.472 387.617 227.352 373.45 212.388L292.965 12.784Z" fill="url(#prefix__paint1_linear)"/><path d="M212.843 64.553C216.706 55.771 228.925 55.687 232.907 64.407L303.022 220.095C306.351 227.579 300.804 236.053 292.645 236.36L190.436 240.251C182.153 240.562 176.13 232.102 179.175 224.238L212.843 64.553Z" fill="url(#prefix__paint2_linear)"/></g><defs><linearGradient id="prefix__paint0_linear" x1="6.000" y1="33.000" x2="235.500" y2="344.500" gradientUnits="userSpaceOnUse"><stop stop-color="#FFEA83"/><stop offset="0.083" stop-color="#FFDD35"/><stop offset="1" stop-color="#FFA800"/></linearGradient><linearGradient id="prefix__paint1_linear" x1="194.651" y1="8.818" x2="236.076" y2="292.989" gradientUnits="userSpaceOnUse"><stop stop-color="#FFEA83"/><stop offset="0.083" stop-color="#FFDD35"/><stop offset="1" stop-color="#FFA800"/></linearGradient><linearGradient id="prefix__paint2_linear" x1="211.278" y1="62.236" x2="226.884" y2="234.505" gradientUnits="userSpaceOnUse"><stop stop-color="#FFEA83"/><stop offset="0.083" stop-color="#FFDD35"/><stop offset="1" stop-color="#FFA800"/></linearGradient><clipPath id="prefix__clip0"><rect width="410" height="404" fill="#fff"/></clipPath></defs></svg>